"Captain America: The First Avenger" will focus on the early days of the Marvel Universe when Steve Rogers volunteers to participate in an experimental program that turns him into the Super Soldier known as Captain America. As Captain America, Rogers joins forces with Bucky Barnes and Peggy Carter to wage war on the evil HYDRA organization, led by the villainous Red Skull.

Starring: Samuel L. Jackson, Craig Fairbrass, Toby Jones, Hayley Atwell, Sebastian Stan, Stanley Tucci, Chris Evans, Hugo Weaving
Director: Joe Johnston

 
http://www.imdb.com/title/tt0458339/


 
http://stpicz.com/1140_vlcsnap_2013_04_03_21h58m20s53_vile.png 
http://stpicz.com/3857_vlcsnap_2013_04_03_21h42m08s62_eiep.png 
http://stpicz.com/0874_vlcsnap_2013_04_03_21h46m13s213_bs90.png 
http://stpicz.com/7990_vlcsnap_2013_04_03_21h48m03s27_j9kl.png 
http://stpicz.com/1545_vlcsnap_2013_04_03_21h58m10s220_0tia.png 
http://stpicz.com/5680_vlcsnap_2013_04_03_21h57m19s221_adnc.png 
http://stpicz.com/1777_vlcsnap_2013_04_03_21h53m18s122_s0ra.png 
http://stpicz.com/5248_vlcsnap_2013_04_03_21h51m56s57_la9i.png 
http://stpicz.com/2224_vlcsnap_2013_04_03_21h50m35s11_xq9t.png 
http://stpicz.com/1813_vlcsnap_2013_04_03_21h49m56s135_qth1.png



General
Unique ID: 225077787832252344429122687873495969963 (0xA95467B7459AE4AD9090A2FC738DB0AB)
Complete name: E:Captain America (2011) 720p MKV x264 DTS BRrip [Pioneer].mkv
Format: Matroska
Format version: Version 4 / Version 2
File size: 3.91 GiB
Duration: 2h 4mn
Overall bit rate: 4 511 Kbps
Movie name: Captain America (2011) - Encoded by Pioneer
Encoded date: UTC 2013-03-31 09:48:35
Writing application: mkvmerge v6.1.0 ('Old Devil') built on Mar  2 2013 14:32:37
Writing library: libebml v1.3.0 + libmatroska v1.4.0

Video
ID: 1
Format: AVC
Format/Info: Advanced Video Codec
Format profile: High@L3.1
Format settings, CABAC: Yes
Format settings, ReFrames: 5 frames
Codec ID: V_MPEG4/ISO/AVC
Duration: 2h 4mn
Bit rate: 3 000 Kbps
Width: 1 280 pixels
Height: 544 pixels
Display aspect ratio: 2.35:1
Frame rate mode: Constant
Frame rate: 23.976 fps
Color space: YUV
Chroma subsampling: 4:2:0
Bit depth: 8 bits
Scan type: Progressive
Bits/(Pixel*Frame): 0.180
Stream size: 2.53 GiB (65%)
Writing library: x264 core 120
Language: English
Default: Yes
Forced: No
Color primaries: BT.709
Transfer characteristics: BT.709
Matrix coefficients: BT.709

Audio
ID: 2
Format: DTS
Format/Info: Digital Theater Systems
Mode: 16
Format settings, Endianness: Big
Codec ID: A_DTS
Duration: 2h 4mn
Bit rate mode: Constant
Bit rate: 1 509 Kbps
Channel(s): 6 channels
Channel positions: Front: L C R, Side: L R, LFE
Sampling rate: 48.0 KHz
Bit depth: 24 bits
Compression mode: Lossy
Stream size: 1.31 GiB (33%)
Language: English
Default: Yes
Forced: No